<svg width="891" height="404" viewBox="0 0 891 404" fill="none" xmlns="http://www.w3.org/2000/svg">
<rect width="891" height="404" rx="15" fill="#0D1117"/>
<path d="M267 178.16H272.44L293.4 215.12V178.16H299.48V178.72C299.16 179.04 298.947 179.387 298.84 179.76C298.787 180.133 298.76 180.773 298.76 181.68V228H294.36L272.36 188.8V228H267V178.16ZM375.96 228L370.92 213.44H354.84L349.8 228H344.28L362.68 177.28H363.32L381.72 228H375.96ZM362.92 190.08L356.36 209.12H369.48L362.92 190.08ZM441.96 228.32L425 178.08H430.84L443.64 216.4L455.72 178.16H461.24L444.52 228.32H441.96ZM507.72 228V178.08H538.28V183.04H513V199.44H533.88V204.56H513V223.04H538.04V228H507.72ZM587 178.16H592.44L613.4 215.12V178.16H619.48V178.72C619.16 179.04 618.947 179.387 618.84 179.76C618.787 180.133 618.76 180.773 618.76 181.68V228H614.36L592.36 188.8V228H587V178.16Z" fill="white"/>
</svg>
