<svg width="891" height="404" viewBox="0 0 891 404" fill="none" xmlns="http://www.w3.org/2000/svg">
<rect width="891" height="404" rx="15" fill="#0D1117"/>
<path d="M124.8 228.8C121.227 228.8 117.947 227.92 114.96 226.16C112.027 224.347 109.68 221.573 107.92 217.84C106.213 214.053 105.333 209.227 105.28 203.36C105.28 198.453 105.84 194.373 106.96 191.12C108.133 187.813 109.653 185.2 111.52 183.28C113.387 181.307 115.44 179.893 117.68 179.04C119.973 178.187 122.24 177.76 124.48 177.76C128.107 177.76 131.2 178.667 133.76 180.48C136.32 182.24 138.24 184.613 139.52 187.6L134.72 189.84L134 190.16L133.76 189.6C133.92 189.173 133.92 188.8 133.76 188.48C133.6 188.107 133.307 187.547 132.88 186.8C131.547 184.987 130.16 183.787 128.72 183.2C127.333 182.56 125.867 182.24 124.32 182.24C120.107 182.24 116.773 184.08 114.32 187.76C111.92 191.387 110.72 196.453 110.72 202.96C110.72 207.12 111.333 210.8 112.56 214C113.84 217.147 115.52 219.6 117.6 221.36C119.68 223.12 122 224 124.56 224C126.587 224 128.48 223.467 130.24 222.4C132.053 221.28 133.52 219.787 134.64 217.92L138.8 220.64C137.2 223.307 135.28 225.333 133.04 226.72C130.8 228.107 128.053 228.8 124.8 228.8ZM214.96 228L209.92 213.44H193.84L188.8 228H183.28L201.68 177.28H202.32L220.72 228H214.96ZM201.92 190.08L195.36 209.12H208.48L201.92 190.08ZM267.28 178.16H273.84V178.72C273.52 179.04 273.307 179.387 273.2 179.76C273.147 180.133 273.12 180.773 273.12 181.68V223.2H297.12V228H267.28V178.16ZM374.96 228L369.92 213.44H353.84L348.8 228H343.28L361.68 177.28H362.32L380.72 228H374.96ZM361.92 190.08L355.36 209.12H368.48L361.92 190.08ZM425.28 228V178.16H429.68L442 202.56L454.56 178.08H458.8V228H453.52V190.4L442.72 210.48H440.56L430.48 190.64V228H425.28ZM534.96 228L529.92 213.44H513.84L508.8 228H503.28L521.68 177.28H522.32L540.72 228H534.96ZM521.92 190.08L515.36 209.12H528.48L521.92 190.08ZM586.48 228V178.16H601.2C607.067 178.16 611.28 179.467 613.84 182.08C616.453 184.693 617.76 188.133 617.76 192.4C617.76 194.267 617.333 196.133 616.48 198C615.68 199.867 614.507 201.493 612.96 202.88C611.467 204.267 609.68 205.227 607.6 205.76L619.12 228H612.88L601.84 206H592.16V228H586.48ZM592.16 201.04H601.84C605.413 201.04 608 200.267 609.6 198.72C611.2 197.12 612 195.013 612 192.4C612 189.893 611.2 187.787 609.6 186.08C608 184.32 605.413 183.44 601.84 183.44H592.16V201.04ZM666.72 228V178.08H697.28V183.04H672V199.44H692.88V204.56H672V223.04H697.04V228H666.72ZM761.76 228.8C755.307 228.8 750.107 226.693 746.16 222.48L749.04 217.44L749.36 216.72L749.92 217.04C750.027 217.413 750.16 217.84 750.32 218.32C750.48 218.747 750.853 219.28 751.44 219.92C752.827 221.093 754.427 222.027 756.24 222.72C758.107 223.413 760.213 223.76 762.56 223.76C765.547 223.76 768 222.933 769.92 221.28C771.893 219.573 772.88 217.547 772.88 215.2C772.88 213.653 772.56 212.347 771.92 211.28C771.333 210.213 770.213 209.173 768.56 208.16C766.96 207.147 764.587 205.973 761.44 204.64C756.267 202.613 752.693 200.347 750.72 197.84C748.747 195.333 747.76 192.667 747.76 189.84C747.76 186.16 749.12 183.2 751.84 180.96C754.56 178.667 758.267 177.52 762.96 177.52C765.68 177.52 768.24 178.08 770.64 179.2C773.04 180.267 775.093 181.787 776.8 183.76L773.2 188.56L772.72 188.24C772.667 187.813 772.56 187.387 772.4 186.96C772.24 186.533 771.867 186 771.28 185.36C770 184.133 768.64 183.307 767.2 182.88C765.76 182.4 764.053 182.16 762.08 182.16C759.467 182.16 757.387 182.88 755.84 184.32C754.293 185.76 753.52 187.467 753.52 189.44C753.52 190.933 753.84 192.267 754.48 193.44C755.173 194.56 756.4 195.68 758.16 196.8C759.92 197.92 762.48 199.147 765.84 200.48C769.093 201.813 771.627 203.173 773.44 204.56C775.253 205.893 776.533 207.36 777.28 208.96C778.027 210.507 778.4 212.32 778.4 214.4C778.4 216.693 777.813 218.96 776.64 221.2C775.52 223.387 773.733 225.2 771.28 226.64C768.827 228.08 765.653 228.8 761.76 228.8Z" fill="white"/>
</svg>
