<svg width="1751" height="378" viewBox="0 0 1751 378" fill="none" xmlns="http://www.w3.org/2000/svg">
<path d="M0 1V374H30.2868V53.3115L282.412 374H306V1H275.191V322.666L30.2868 1H0Z" fill="black"/>
<path d="M1445 1V374H1475.29V53.3115L1727.41 374H1751V1H1720.19V322.666L1475.29 1H1445Z" fill="black"/>
<path d="M360 374L531.719 1H561.93L734 374H699.48L547.255 38.4068L394.949 374H360Z" fill="black"/>
<path d="M710 0.000330492L878.285 378L904.785 377.517L1071 0H1041.62L891.286 338.16L743.568 0L710 0.000330492Z" fill="black"/>
<path d="M1124 0V29H1369V0H1124Z" fill="black"/>
<path d="M1124 172V201H1369V172H1124Z" fill="black"/>
<path d="M1124 345V373H1369V345H1124Z" fill="black"/>
</svg>
