<svg width="891" height="616" viewBox="0 0 891 616" fill="none" xmlns="http://www.w3.org/2000/svg">
<rect x="0.5" y="0.5" width="890" height="615" stroke="black" stroke-opacity="0.01"/>
<rect x="395.011" y="160.491" width="86.9344" height="11.0667" rx="5.53333" transform="rotate(-45 395.011 160.491)" fill="url(#paint0_linear)" stroke="url(#paint1_linear)" stroke-width="0.539965"/>
<rect x="419.829" y="167.294" width="61.7395" height="11.0667" rx="5.53333" transform="rotate(-45 419.829 167.294)" fill="url(#paint2_linear)" stroke="url(#paint3_linear)" stroke-width="0.539965"/>
<rect x="426.642" y="192.116" width="86.9344" height="11.0667" rx="5.53333" transform="rotate(-45 426.642 192.116)" fill="url(#paint4_linear)" stroke="url(#paint5_linear)" stroke-width="0.539965"/>
<circle cx="445.393" cy="149.393" r="107.993" stroke="url(#paint6_linear)" stroke-width="10.7993"/>
<path d="M146 355.754V435.466C149.198 499.203 243.833 496.699 247.735 435.466V355.754H237.035V435.466C237.035 457.062 217.042 472.046 197.112 471.846C177.125 471.646 160.531 460.333 157.401 435.466V355.754H146.351H146Z" fill="url(#paint7_linear)"/>
<path d="M286.346 356.426V481.664H296.515V373.99L381.168 481.664H389.088V356.426H378.743V464.428L296.515 356.426H286.346Z" fill="url(#paint8_linear)"/>
<path d="M407.221 481.664L464.877 356.426H475.02L532.794 481.664H521.204L470.093 368.985L418.955 481.664H407.221Z" fill="url(#paint9_linear)"/>
<path d="M524.736 355.418L581.24 482.335L590.137 482.172L645.945 355.418H636.081L585.605 468.958L536.007 355.418L524.736 355.418Z" fill="url(#paint10_linear)"/>
<path fill-rule="evenodd" clip-rule="evenodd" d="M663.738 356.426V366.163H745.999V356.426H663.738ZM663.738 414.176V423.913H745.999V414.176H663.738ZM663.738 481.663V472.262H745.999V481.663H663.738Z" fill="url(#paint11_linear)"/>
<path d="M217.5 560.35C217.5 556.83 218.32 554.15 219.96 552.31C221.62 550.45 224.02 549.52 227.16 549.52C230.08 549.52 232.32 550.55 233.88 552.61L231.9 554.23C230.76 552.73 229.18 551.98 227.16 551.98C225.02 551.98 223.38 552.7 222.24 554.14C221.12 555.56 220.56 557.63 220.56 560.35C220.56 563.15 221.14 565.27 222.3 566.71C223.48 568.15 225.21 568.87 227.49 568.87C229.05 568.87 230.74 568.4 232.56 567.46L233.4 569.71C232.66 570.19 231.73 570.57 230.61 570.85C229.49 571.13 228.31 571.27 227.07 571.27C223.99 571.27 221.62 570.33 219.96 568.45C218.32 566.57 217.5 563.87 217.5 560.35ZM236.071 563.26C236.071 560.76 236.701 558.81 237.961 557.41C239.241 556.01 241.051 555.31 243.391 555.31C245.731 555.31 247.531 556.01 248.791 557.41C250.071 558.81 250.711 560.76 250.711 563.26C250.711 565.76 250.071 567.72 248.791 569.14C247.531 570.54 245.731 571.24 243.391 571.24C241.051 571.24 239.241 570.54 237.961 569.14C236.701 567.72 236.071 565.76 236.071 563.26ZM238.951 563.26C238.951 565.14 239.331 566.57 240.091 567.55C240.871 568.53 241.971 569.02 243.391 569.02C244.811 569.02 245.901 568.53 246.661 567.55C247.441 566.57 247.831 565.14 247.831 563.26C247.831 561.38 247.441 559.96 246.661 559C245.901 558.02 244.811 557.53 243.391 557.53C241.971 557.53 240.871 558.02 240.091 559C239.331 559.96 238.951 561.38 238.951 563.26ZM262.594 555.31C264.234 555.31 265.484 555.78 266.344 556.72C267.224 557.66 267.664 559.02 267.664 560.8V571H264.844V561.01C264.844 559.79 264.604 558.91 264.124 558.37C263.664 557.81 262.914 557.53 261.874 557.53C260.934 557.53 260.074 557.75 259.294 558.19C258.514 558.61 257.874 559.2 257.374 559.96V571H254.554V555.58H256.864L257.194 557.74C258.574 556.12 260.374 555.31 262.594 555.31ZM271.345 563.26C271.345 560.78 271.965 558.84 273.205 557.44C274.445 556.02 276.285 555.31 278.725 555.31C281.065 555.31 282.845 556.16 284.065 557.86L282.175 559.27C281.695 558.69 281.175 558.26 280.615 557.98C280.075 557.68 279.445 557.53 278.725 557.53C277.305 557.53 276.195 558.02 275.395 559C274.615 559.96 274.225 561.38 274.225 563.26C274.225 565.16 274.625 566.6 275.425 567.58C276.245 568.54 277.405 569.02 278.905 569.02C279.745 569.02 280.455 568.93 281.035 568.75C281.615 568.55 282.265 568.29 282.985 567.97L283.765 569.89C282.285 570.75 280.595 571.18 278.695 571.18C276.275 571.18 274.445 570.48 273.205 569.08C271.965 567.68 271.345 565.74 271.345 563.26ZM286.169 563.26C286.169 560.74 286.799 558.79 288.059 557.41C289.319 556.01 291.099 555.31 293.399 555.31C295.659 555.31 297.289 555.99 298.289 557.35C299.309 558.69 299.819 560.63 299.819 563.17V563.65H289.049C289.089 565.39 289.499 566.72 290.279 567.64C291.059 568.56 292.179 569.02 293.639 569.02C294.439 569.02 295.209 568.93 295.949 568.75C296.689 568.55 297.509 568.25 298.409 567.85L299.219 569.77C298.199 570.29 297.229 570.67 296.309 570.91C295.389 571.13 294.449 571.24 293.489 571.24C291.169 571.24 289.369 570.54 288.089 569.14C286.809 567.74 286.169 565.78 286.169 563.26ZM293.399 557.53C292.219 557.53 291.269 557.87 290.549 558.55C289.849 559.23 289.389 560.23 289.169 561.55H296.849C296.709 560.17 296.359 559.16 295.799 558.52C295.239 557.86 294.439 557.53 293.399 557.53ZM310.591 555.31C312.731 555.31 314.391 555.98 315.571 557.32C316.771 558.64 317.371 560.54 317.371 563.02C317.371 565.6 316.661 567.62 315.241 569.08C313.841 570.52 311.911 571.24 309.451 571.24C308.291 571.24 307.221 571.1 306.241 570.82V578.35H303.421V555.58H305.701L306.061 557.44C306.601 556.74 307.251 556.21 308.011 555.85C308.791 555.49 309.651 555.31 310.591 555.31ZM309.421 569.02C311.001 569.02 312.241 568.5 313.141 567.46C314.041 566.4 314.491 564.92 314.491 563.02C314.491 561.26 314.131 559.91 313.411 558.97C312.711 558.01 311.711 557.53 310.411 557.53C309.391 557.53 308.511 557.8 307.771 558.34C307.051 558.88 306.541 559.63 306.241 560.59V568.57C307.261 568.87 308.321 569.02 309.421 569.02ZM319.585 557.74V555.58H322.525L323.005 551.08H325.105V555.58H329.815V557.74H325.105V566.26C325.105 568.04 325.855 568.93 327.355 568.93C327.955 568.93 328.695 568.79 329.575 568.51L330.055 570.49C328.955 570.95 327.885 571.18 326.845 571.18C325.505 571.18 324.405 570.78 323.545 569.98C322.705 569.18 322.285 567.99 322.285 566.41V557.74H319.585ZM340.894 549.76H343.654V552.37H340.894V549.76ZM340.894 555.58H343.654V571H340.894V555.58ZM356.725 555.31C358.365 555.31 359.615 555.78 360.475 556.72C361.355 557.66 361.795 559.02 361.795 560.8V571H358.975V561.01C358.975 559.79 358.735 558.91 358.255 558.37C357.795 557.81 357.045 557.53 356.005 557.53C355.065 557.53 354.205 557.75 353.425 558.19C352.645 558.61 352.005 559.2 351.505 559.96V571H348.685V555.58H350.995L351.325 557.74C352.705 556.12 354.505 555.31 356.725 555.31ZM373.966 567.82C374.866 568.2 375.636 568.48 376.276 568.66C376.936 568.84 377.616 568.93 378.316 568.93C379.216 568.93 379.916 568.74 380.416 568.36C380.936 567.98 381.196 567.42 381.196 566.68C381.196 566.22 381.056 565.85 380.776 565.57C380.516 565.27 380.216 565.05 379.876 564.91C379.556 564.77 378.946 564.55 378.046 564.25C377.906 564.21 377.376 564.03 376.456 563.71C375.536 563.39 374.826 562.89 374.326 562.21C373.846 561.53 373.606 560.69 373.606 559.69C373.606 558.45 374.086 557.41 375.046 556.57C376.006 555.73 377.416 555.31 379.276 555.31C380.056 555.31 380.786 555.4 381.466 555.58C382.166 555.76 382.896 556 383.656 556.3L382.906 558.52C382.246 558.26 381.626 558.05 381.046 557.89C380.486 557.73 379.896 557.65 379.276 557.65C378.336 557.65 377.626 557.84 377.146 558.22C376.666 558.58 376.426 559.06 376.426 559.66C376.426 560.22 376.616 560.64 376.996 560.92C377.376 561.18 377.986 561.46 378.826 561.76C379.046 561.82 379.246 561.89 379.426 561.97L380.146 562.24C380.986 562.52 381.656 562.8 382.156 563.08C382.676 563.36 383.116 563.79 383.476 564.37C383.836 564.93 384.016 565.68 384.016 566.62C384.016 568.1 383.486 569.25 382.426 570.07C381.386 570.87 380.026 571.27 378.346 571.27C377.366 571.27 376.456 571.17 375.616 570.97C374.776 570.75 373.936 570.46 373.096 570.1L373.966 567.82ZM388.18 549.76H390.94V552.37H388.18V549.76ZM388.18 555.58H390.94V571H388.18V555.58ZM413.79 555.31C415.53 555.31 416.84 555.78 417.72 556.72C418.6 557.64 419.04 559 419.04 560.8V571H416.22V561.01C416.22 559.79 415.98 558.91 415.5 558.37C415.04 557.81 414.29 557.53 413.25 557.53C412.35 557.53 411.51 557.75 410.73 558.19C409.97 558.61 409.36 559.2 408.9 559.96C408.92 560.14 408.93 560.42 408.93 560.8V571H406.11V561.01C406.11 559.79 405.87 558.91 405.39 558.37C404.93 557.81 404.18 557.53 403.14 557.53C402.24 557.53 401.41 557.75 400.65 558.19C399.89 558.61 399.27 559.19 398.79 559.93V571H395.97V555.58H398.28L398.58 557.68C399.92 556.1 401.62 555.31 403.68 555.31C406.1 555.31 407.69 556.21 408.45 558.01C409.81 556.21 411.59 555.31 413.79 555.31ZM430.972 555.31C433.112 555.31 434.772 555.98 435.952 557.32C437.152 558.64 437.752 560.54 437.752 563.02C437.752 565.6 437.042 567.62 435.622 569.08C434.222 570.52 432.292 571.24 429.832 571.24C428.672 571.24 427.602 571.1 426.622 570.82V578.35H423.802V555.58H426.082L426.442 557.44C426.982 556.74 427.632 556.21 428.392 555.85C429.172 555.49 430.032 555.31 430.972 555.31ZM429.802 569.02C431.382 569.02 432.622 568.5 433.522 567.46C434.422 566.4 434.872 564.92 434.872 563.02C434.872 561.26 434.512 559.91 433.792 558.97C433.092 558.01 432.092 557.53 430.792 557.53C429.772 557.53 428.892 557.8 428.152 558.34C427.432 558.88 426.922 559.63 426.622 560.59V568.57C427.642 568.87 428.702 569.02 429.802 569.02ZM441.676 548.23H444.436V571H441.676V548.23ZM449.586 549.76H452.346V552.37H449.586V549.76ZM449.586 555.58H452.346V571H449.586V555.58ZM456.296 563.26C456.296 560.78 456.916 558.84 458.156 557.44C459.396 556.02 461.236 555.31 463.676 555.31C466.016 555.31 467.796 556.16 469.016 557.86L467.126 559.27C466.646 558.69 466.126 558.26 465.566 557.98C465.026 557.68 464.396 557.53 463.676 557.53C462.256 557.53 461.146 558.02 460.346 559C459.566 559.96 459.176 561.38 459.176 563.26C459.176 565.16 459.576 566.6 460.376 567.58C461.196 568.54 462.356 569.02 463.856 569.02C464.696 569.02 465.406 568.93 465.986 568.75C466.566 568.55 467.216 568.29 467.936 567.97L468.716 569.89C467.236 570.75 465.546 571.18 463.646 571.18C461.226 571.18 459.396 570.48 458.156 569.08C456.916 567.68 456.296 565.74 456.296 563.26ZM472.32 549.76H475.08V552.37H472.32V549.76ZM472.32 555.58H475.08V571H472.32V555.58ZM478.52 557.74V555.58H481.46L481.94 551.08H484.04V555.58H488.75V557.74H484.04V566.26C484.04 568.04 484.79 568.93 486.29 568.93C486.89 568.93 487.63 568.79 488.51 568.51L488.99 570.49C487.89 570.95 486.82 571.18 485.78 571.18C484.44 571.18 483.34 570.78 482.48 569.98C481.64 569.18 481.22 567.99 481.22 566.41V557.74H478.52ZM501.96 555.58H504.69L496.74 578.38H494.19L496.71 571H495.54L490.08 555.58H492.99L497.52 568.63L501.96 555.58ZM513.804 566.83C513.804 565.19 514.464 563.92 515.784 563.02C517.104 562.12 518.974 561.67 521.394 561.67H523.674V561.07C523.674 559.79 523.404 558.88 522.864 558.34C522.344 557.8 521.444 557.53 520.164 557.53C519.344 557.53 518.614 557.61 517.974 557.77C517.334 557.91 516.514 558.2 515.514 558.64L514.674 556.69C516.554 555.77 518.404 555.31 520.224 555.31C522.404 555.31 523.994 555.78 524.994 556.72C525.994 557.64 526.494 559.11 526.494 561.13V571H524.304C524.284 570.92 524.244 570.73 524.184 570.43C524.124 570.11 524.034 569.7 523.914 569.2C522.474 570.64 520.794 571.36 518.874 571.36C517.334 571.36 516.104 570.95 515.184 570.13C514.264 569.31 513.804 568.21 513.804 566.83ZM516.624 566.77C516.624 567.53 516.864 568.12 517.344 568.54C517.824 568.94 518.514 569.14 519.414 569.14C520.214 569.14 520.994 568.96 521.754 568.6C522.514 568.22 523.154 567.71 523.674 567.07V563.77H521.574C519.934 563.77 518.694 564.02 517.854 564.52C517.034 565.02 516.624 565.77 516.624 566.77ZM539.303 555.31C540.943 555.31 542.193 555.78 543.053 556.72C543.933 557.66 544.373 559.02 544.373 560.8V571H541.553V561.01C541.553 559.79 541.313 558.91 540.833 558.37C540.373 557.81 539.623 557.53 538.583 557.53C537.643 557.53 536.783 557.75 536.003 558.19C535.223 558.61 534.583 559.2 534.083 559.96V571H531.263V555.58H533.573L533.903 557.74C535.283 556.12 537.083 555.31 539.303 555.31ZM562.064 548.23V570.97H559.784L559.394 569.08C558.254 570.52 556.734 571.24 554.834 571.24C552.694 571.24 551.024 570.58 549.824 569.26C548.644 567.92 548.054 566.01 548.054 563.53C548.054 560.95 548.754 558.94 550.154 557.5C551.574 556.04 553.514 555.31 555.974 555.31C557.034 555.31 558.124 555.45 559.244 555.73V548.23H562.064ZM555.014 569.02C556.054 569.02 556.944 568.74 557.684 568.18C558.444 567.6 558.964 566.8 559.244 565.78V557.98C558.224 557.68 557.144 557.53 556.004 557.53C554.424 557.53 553.184 558.06 552.284 559.12C551.384 560.16 550.934 561.63 550.934 563.53C550.934 565.29 551.284 566.65 551.984 567.61C552.704 568.55 553.714 569.02 555.014 569.02ZM581.707 555.31C583.847 555.31 585.507 555.98 586.687 557.32C587.887 558.64 588.487 560.54 588.487 563.02C588.487 565.6 587.777 567.62 586.357 569.08C584.957 570.52 583.027 571.24 580.567 571.24C578.947 571.24 577.377 570.94 575.857 570.34L574.507 570.01V548.23H577.327V557.26C578.407 555.96 579.867 555.31 581.707 555.31ZM580.537 569.02C582.117 569.02 583.357 568.5 584.257 567.46C585.157 566.4 585.607 564.92 585.607 563.02C585.607 561.26 585.247 559.91 584.527 558.97C583.827 558.01 582.827 557.53 581.527 557.53C580.487 557.53 579.597 557.81 578.857 558.37C578.117 558.93 577.607 559.7 577.327 560.68V568.57C578.347 568.87 579.417 569.02 580.537 569.02ZM591.237 563.26C591.237 560.74 591.867 558.79 593.127 557.41C594.387 556.01 596.167 555.31 598.467 555.31C600.727 555.31 602.357 555.99 603.357 557.35C604.377 558.69 604.887 560.63 604.887 563.17V563.65H594.117C594.157 565.39 594.567 566.72 595.347 567.64C596.127 568.56 597.247 569.02 598.707 569.02C599.507 569.02 600.277 568.93 601.017 568.75C601.757 568.55 602.577 568.25 603.477 567.85L604.287 569.77C603.267 570.29 602.297 570.67 601.377 570.91C600.457 571.13 599.517 571.24 598.557 571.24C596.237 571.24 594.437 570.54 593.157 569.14C591.877 567.74 591.237 565.78 591.237 563.26ZM598.467 557.53C597.287 557.53 596.337 557.87 595.617 558.55C594.917 559.23 594.457 560.23 594.237 561.55H601.917C601.777 560.17 601.427 559.16 600.867 558.52C600.307 557.86 599.507 557.53 598.467 557.53ZM607.349 566.83C607.349 565.19 608.009 563.92 609.329 563.02C610.649 562.12 612.519 561.67 614.939 561.67H617.219V561.07C617.219 559.79 616.949 558.88 616.409 558.34C615.889 557.8 614.989 557.53 613.709 557.53C612.889 557.53 612.159 557.61 611.519 557.77C610.879 557.91 610.059 558.2 609.059 558.64L608.219 556.69C610.099 555.77 611.949 555.31 613.769 555.31C615.949 555.31 617.539 555.78 618.539 556.72C619.539 557.64 620.039 559.11 620.039 561.13V571H617.849C617.829 570.92 617.789 570.73 617.729 570.43C617.669 570.11 617.579 569.7 617.459 569.2C616.019 570.64 614.339 571.36 612.419 571.36C610.879 571.36 609.649 570.95 608.729 570.13C607.809 569.31 607.349 568.21 607.349 566.83ZM610.169 566.77C610.169 567.53 610.409 568.12 610.889 568.54C611.369 568.94 612.059 569.14 612.959 569.14C613.759 569.14 614.539 568.96 615.299 568.6C616.059 568.22 616.699 567.71 617.219 567.07V563.77H615.119C613.479 563.77 612.239 564.02 611.399 564.52C610.579 565.02 610.169 565.77 610.169 566.77ZM637.768 555.58V571H635.458L635.128 568.87C633.788 570.47 632.048 571.27 629.908 571.27C628.168 571.27 626.858 570.81 625.978 569.89C625.098 568.95 624.658 567.58 624.658 565.78V555.58H627.478V565.57C627.478 566.79 627.708 567.68 628.168 568.24C628.648 568.78 629.408 569.05 630.448 569.05C631.388 569.05 632.248 568.84 633.028 568.42C633.808 567.98 634.448 567.38 634.948 566.62V555.58H637.768ZM641.089 557.74V555.58H644.029L644.509 551.08H646.609V555.58H651.319V557.74H646.609V566.26C646.609 568.04 647.359 568.93 648.859 568.93C649.459 568.93 650.199 568.79 651.079 568.51L651.559 570.49C650.459 570.95 649.389 571.18 648.349 571.18C647.009 571.18 645.909 570.78 645.049 569.98C644.209 569.18 643.789 567.99 643.789 566.41V557.74H641.089ZM664.528 555.58H667.258L659.308 578.38H656.758L659.278 571H658.108L652.648 555.58H655.558L660.088 568.63L664.528 555.58ZM670.133 549.4H673.013L672.623 565.48H670.493L670.133 549.4ZM670.193 568.24H672.983V571H670.193V568.24Z" fill="white"/>
<defs>
<linearGradient id="paint0_linear" x1="374.666" y1="167.978" x2="496.847" y2="166.832" gradientUnits="userSpaceOnUse">
<stop stop-color="#23D18C"/>
<stop offset="1" stop-color="#EC0488"/>
</linearGradient>
<linearGradient id="paint1_linear" x1="389.214" y1="174.005" x2="392.715" y2="146.75" gradientUnits="userSpaceOnUse">
<stop stop-color="#23D18C"/>
<stop offset="1" stop-color="#FF0995"/>
</linearGradient>
<linearGradient id="paint2_linear" x1="407.492" y1="172.401" x2="497.09" y2="172.271" gradientUnits="userSpaceOnUse">
<stop stop-color="#23D18C"/>
<stop offset="1" stop-color="#EC0488"/>
</linearGradient>
<linearGradient id="paint3_linear" x1="415.592" y1="180.807" x2="420.433" y2="153.976" gradientUnits="userSpaceOnUse">
<stop stop-color="#23D18C"/>
<stop offset="1" stop-color="#FF0995"/>
</linearGradient>
<linearGradient id="paint4_linear" x1="396.179" y1="214.628" x2="556.732" y2="215.583" gradientUnits="userSpaceOnUse">
<stop stop-color="#23D18C"/>
<stop offset="1" stop-color="#EC0488"/>
</linearGradient>
<linearGradient id="paint5_linear" x1="420.845" y1="205.63" x2="424.346" y2="178.375" gradientUnits="userSpaceOnUse">
<stop stop-color="#23D18C"/>
<stop offset="1" stop-color="#FF0995"/>
</linearGradient>
<linearGradient id="paint6_linear" x1="317.961" y1="300.043" x2="588.484" y2="20.611" gradientUnits="userSpaceOnUse">
<stop stop-color="#23D18C"/>
<stop offset="1" stop-color="#FF0995"/>
</linearGradient>
<linearGradient id="paint7_linear" x1="196.867" y1="355.754" x2="196.867" y2="482.335" gradientUnits="userSpaceOnUse">
<stop stop-color="#23D18C"/>
<stop offset="0.989583" stop-color="#60716A" stop-opacity="0.2"/>
</linearGradient>
<linearGradient id="paint8_linear" x1="337.717" y1="356.426" x2="337.717" y2="481.664" gradientUnits="userSpaceOnUse">
<stop stop-color="#23D18C"/>
<stop offset="0.989583" stop-color="#60716A" stop-opacity="0.2"/>
</linearGradient>
<linearGradient id="paint9_linear" x1="470.007" y1="356.426" x2="470.007" y2="481.664" gradientUnits="userSpaceOnUse">
<stop stop-color="#23D18C"/>
<stop offset="0.989583" stop-color="#60716A" stop-opacity="0.2"/>
</linearGradient>
<linearGradient id="paint10_linear" x1="585.341" y1="355.418" x2="585.341" y2="482.335" gradientUnits="userSpaceOnUse">
<stop stop-color="#23D18C"/>
<stop offset="0.989583" stop-color="#60716A" stop-opacity="0.2"/>
</linearGradient>
<linearGradient id="paint11_linear" x1="704.869" y1="356.426" x2="704.869" y2="481.663" gradientUnits="userSpaceOnUse">
<stop stop-color="#23D18C"/>
<stop offset="0.989583" stop-color="#60716A" stop-opacity="0.2"/>
</linearGradient>
</defs>
</svg>
