<svg width="891" height="616" viewBox="0 0 891 616" fill="none" xmlns="http://www.w3.org/2000/svg">
<rect width="891" height="616" fill="#0D1117"/>
<path d="M583.641 183.366L446 422.08L308.359 183.366L583.641 183.366Z" stroke="url(#paint0_linear)" stroke-width="18.9017"/>
<path d="M380.958 160V145.444H382.243L385.841 152.57L389.509 145.42H390.748V160H389.206V149.019L386.051 154.883H385.421L382.477 149.089V160H380.958ZM409.206 160.257C407.539 160.257 406.254 159.611 405.351 158.318C404.447 157.025 403.995 155.187 403.995 152.804C403.995 150.498 404.447 148.684 405.351 147.36C406.254 146.02 407.539 145.35 409.206 145.35C410.872 145.35 412.157 146.02 413.061 147.36C413.964 148.684 414.416 150.498 414.416 152.804C414.416 155.187 413.964 157.025 413.061 158.318C412.157 159.611 410.872 160.257 409.206 160.257ZM409.206 158.832C410.312 158.832 411.176 158.31 411.799 157.266C412.422 156.223 412.734 154.735 412.734 152.804C412.734 150.966 412.422 149.502 411.799 148.411C411.176 147.321 410.312 146.776 409.206 146.776C408.1 146.776 407.235 147.321 406.612 148.411C405.989 149.502 405.678 150.966 405.678 152.804C405.678 154.735 405.989 156.223 406.612 157.266C407.235 158.31 408.1 158.832 409.206 158.832ZM427.991 160.023V145.444H431.379C432.625 145.444 433.591 145.615 434.276 145.958C434.977 146.301 435.569 146.791 436.052 147.43C437.002 148.707 437.477 150.498 437.477 152.804C437.415 154.283 437.165 155.569 436.729 156.659C436.309 157.734 435.639 158.567 434.72 159.159C433.816 159.735 432.609 160.023 431.098 160.023H427.991ZM429.533 158.738H431.028C432.695 158.738 433.918 158.24 434.696 157.243C435.475 156.231 435.857 154.782 435.841 152.897C435.826 150.997 435.468 149.509 434.767 148.435C434.081 147.36 432.921 146.822 431.285 146.822H429.533V158.738ZM451.472 160V145.42H460.398V146.869H453.014V151.659H459.112V153.154H453.014V158.551H460.327V160H451.472ZM474.767 160V145.444H479.066C480.779 145.444 482.01 145.825 482.757 146.589C483.521 147.352 483.902 148.357 483.902 149.603C483.902 150.148 483.778 150.693 483.528 151.238C483.295 151.783 482.952 152.259 482.5 152.664C482.064 153.069 481.542 153.349 480.935 153.505L484.3 160H482.477L479.253 153.575H476.426V160H474.767ZM476.426 152.126H479.253C480.296 152.126 481.052 151.9 481.519 151.449C481.986 150.981 482.22 150.366 482.22 149.603C482.22 148.871 481.986 148.255 481.519 147.757C481.052 147.243 480.296 146.986 479.253 146.986H476.426V152.126ZM497.991 145.444H499.58L505.701 156.238V145.444H507.477V145.607C507.384 145.701 507.321 145.802 507.29 145.911C507.275 146.02 507.267 146.207 507.267 146.472V160H505.982L499.557 148.551V160H497.991V145.444Z" fill="white"/>
<defs>
<linearGradient id="paint0_linear" x1="445.814" y1="459.079" x2="445.814" y2="144.681" gradientUnits="userSpaceOnUse">
<stop stop-color="#E84855"/>
<stop offset="1" stop-color="#EC0488"/>
</linearGradient>
</defs>
</svg>
