<svg width="891" height="616" viewBox="0 0 891 616" fill="none" xmlns="http://www.w3.org/2000/svg">
<rect width="891" height="616" fill="#0D1117"/>
<path d="M583.641 183.366L446 422.08L308.359 183.366L583.641 183.366Z" stroke="url(#paint0_linear)" stroke-width="18.9017"/>
<path d="M382.122 160V145.444H386.257C387.939 145.444 389.162 145.771 389.925 146.425C390.704 147.079 391.094 147.928 391.094 148.972C391.094 149.657 390.907 150.304 390.533 150.911C390.159 151.519 389.629 151.947 388.944 152.196C389.77 152.477 390.432 152.967 390.93 153.668C391.428 154.354 391.678 155.101 391.678 155.911C391.678 157.142 391.241 158.131 390.369 158.878C389.497 159.626 388.118 160 386.234 160H382.122ZM383.734 151.472H386.023C387.316 151.472 388.212 151.254 388.71 150.818C389.209 150.382 389.458 149.829 389.458 149.159C389.458 148.52 389.217 147.975 388.734 147.523C388.251 147.056 387.433 146.822 386.28 146.822H383.734V151.472ZM383.734 158.575H386.514C387.527 158.575 388.352 158.372 388.991 157.967C389.629 157.547 389.949 156.83 389.949 155.818C389.949 154.945 389.66 154.237 389.084 153.692C388.523 153.131 387.534 152.85 386.117 152.85H383.734V158.575ZM405.743 160V145.42H414.668V146.869H407.285V151.659H413.383V153.154H407.285V158.551H414.598V160H405.743ZM437.355 160L435.883 155.748H431.187L429.715 160H428.103L433.477 145.187H433.664L439.038 160H437.355ZM433.547 148.925L431.631 154.486H435.463L433.547 148.925ZM456.958 160.257C455.401 160.257 454.225 159.798 453.43 158.878C452.651 157.944 452.262 156.643 452.262 154.977V145.444H454.084V145.607C453.991 145.701 453.929 145.802 453.898 145.911C453.882 146.02 453.874 146.207 453.874 146.472V155C453.874 156.184 454.1 157.126 454.552 157.827C455.019 158.528 455.829 158.878 456.982 158.878C458.15 158.878 458.968 158.528 459.435 157.827C459.902 157.126 460.136 156.16 460.136 154.93V145.444H461.701V154.907C461.701 156.745 461.265 158.1 460.393 158.972C459.536 159.829 458.391 160.257 456.958 160.257ZM479.318 160V146.892H475.183V145.42H485.276V146.892H480.977V160H479.318ZM502.963 160V154.252L498.477 145.444H500.346L503.921 152.5L507.145 145.444H508.874L504.739 154.252V160H502.963Z" fill="white"/>
<defs>
<linearGradient id="paint0_linear" x1="445.814" y1="459.079" x2="445.814" y2="144.681" gradientUnits="userSpaceOnUse">
<stop stop-color="#6BFF7A"/>
<stop offset="1" stop-color="#EC0488"/>
</linearGradient>
</defs>
</svg>
