<svg width="891" height="616" viewBox="0 0 891 616" fill="none" xmlns="http://www.w3.org/2000/svg">
<rect width="891" height="616" fill="#0D1117"/>
<path d="M583.641 183.366L446 422.08L308.359 183.366L583.641 183.366Z" stroke="url(#paint0_linear)" stroke-width="18.9017"/>
<path d="M338.771 160.234C336.886 160.234 335.368 159.618 334.215 158.388L335.056 156.916L335.15 156.706L335.313 156.799C335.344 156.908 335.383 157.033 335.43 157.173C335.477 157.297 335.586 157.453 335.757 157.64C336.162 157.983 336.629 158.255 337.159 158.458C337.704 158.66 338.319 158.762 339.005 158.762C339.877 158.762 340.593 158.52 341.154 158.037C341.731 157.539 342.019 156.947 342.019 156.262C342.019 155.81 341.925 155.428 341.738 155.117C341.567 154.805 341.24 154.502 340.757 154.206C340.29 153.91 339.597 153.567 338.678 153.178C337.167 152.586 336.123 151.924 335.547 151.192C334.97 150.459 334.682 149.681 334.682 148.855C334.682 147.78 335.079 146.916 335.874 146.262C336.668 145.592 337.751 145.257 339.122 145.257C339.916 145.257 340.664 145.42 341.365 145.748C342.065 146.059 342.665 146.503 343.164 147.079L342.112 148.481L341.972 148.388C341.956 148.263 341.925 148.139 341.879 148.014C341.832 147.889 341.723 147.734 341.551 147.547C341.178 147.188 340.78 146.947 340.36 146.822C339.939 146.682 339.441 146.612 338.865 146.612C338.101 146.612 337.494 146.822 337.042 147.243C336.59 147.663 336.365 148.162 336.365 148.738C336.365 149.174 336.458 149.564 336.645 149.906C336.847 150.234 337.206 150.561 337.72 150.888C338.234 151.215 338.981 151.573 339.963 151.963C340.913 152.352 341.653 152.749 342.182 153.154C342.712 153.544 343.086 153.972 343.304 154.439C343.522 154.891 343.631 155.421 343.631 156.028C343.631 156.698 343.46 157.36 343.117 158.014C342.79 158.653 342.268 159.182 341.551 159.603C340.835 160.023 339.908 160.234 338.771 160.234ZM358.257 160V158.621H361.131V146.822H358.421V145.444H365.64V146.822H362.766V158.645H365.781V160H358.257ZM380.687 160V145.444H381.972L385.57 152.57L389.239 145.42H390.477V160H388.935V149.019L385.781 154.883H385.15L382.206 149.089V160H380.687ZM404.472 160V145.444H409.145C410.236 145.444 411.116 145.631 411.785 146.005C412.455 146.378 412.946 146.877 413.257 147.5C413.584 148.107 413.748 148.793 413.748 149.556C413.748 150.304 413.592 150.981 413.281 151.589C412.969 152.196 412.486 152.679 411.832 153.037C411.178 153.396 410.321 153.575 409.262 153.575H406.155V160H404.472ZM406.155 152.126H409.075C410.134 152.126 410.898 151.9 411.365 151.449C411.832 150.981 412.066 150.366 412.066 149.603C412.066 148.886 411.832 148.271 411.365 147.757C410.898 147.243 410.142 146.986 409.098 146.986H406.155V152.126ZM428 145.444H429.916V145.607C429.823 145.701 429.761 145.802 429.729 145.911C429.714 146.02 429.706 146.207 429.706 146.472V158.598H436.715V160H428V145.444ZM451.715 160V158.621H454.589V146.822H451.879V145.444H459.099V146.822H456.225V158.645H459.239V160H451.715ZM479.846 160.234C478.803 160.234 477.845 159.977 476.973 159.463C476.116 158.933 475.431 158.123 474.916 157.033C474.418 155.927 474.161 154.517 474.145 152.804C474.145 151.371 474.309 150.179 474.636 149.229C474.979 148.263 475.423 147.5 475.968 146.939C476.513 146.363 477.113 145.95 477.767 145.701C478.437 145.452 479.099 145.327 479.753 145.327C480.812 145.327 481.716 145.592 482.463 146.121C483.211 146.635 483.772 147.329 484.145 148.201L482.744 148.855L482.533 148.949L482.463 148.785C482.51 148.66 482.51 148.551 482.463 148.458C482.417 148.349 482.331 148.185 482.206 147.967C481.817 147.438 481.412 147.087 480.991 146.916C480.586 146.729 480.158 146.635 479.706 146.635C478.476 146.635 477.502 147.173 476.786 148.248C476.085 149.307 475.734 150.787 475.734 152.687C475.734 153.902 475.913 154.977 476.272 155.911C476.645 156.83 477.136 157.547 477.744 158.061C478.351 158.575 479.029 158.832 479.776 158.832C480.368 158.832 480.921 158.676 481.435 158.364C481.965 158.037 482.393 157.601 482.72 157.056L483.935 157.85C483.468 158.629 482.907 159.221 482.253 159.626C481.599 160.031 480.797 160.234 479.846 160.234ZM498.445 160V158.621H501.318V146.822H498.608V145.444H505.828V146.822H502.954V158.645H505.968V160H498.445ZM524.777 160V146.892H520.641V145.42H530.734V146.892H526.435V160H524.777ZM548.421 160V154.252L543.935 145.444H545.805L549.379 152.5L552.604 145.444H554.333L550.197 154.252V160H548.421Z" fill="white"/>
<defs>
<linearGradient id="paint0_linear" x1="445.814" y1="459.079" x2="445.814" y2="144.681" gradientUnits="userSpaceOnUse">
<stop stop-color="#FFE066"/>
<stop offset="1" stop-color="#EC0488"/>
</linearGradient>
</defs>
</svg>
