<svg width="891" height="616" viewBox="0 0 891 616" fill="none" xmlns="http://www.w3.org/2000/svg">
<rect width="891" height="616" fill="#0D1117"/>
<path d="M172.24 334V284.08H200.96V288.96H177.84V304.64H196.48V309.52H177.84V334H172.24ZM251.28 284.16H257.84V284.72C257.52 285.04 257.307 285.387 257.2 285.76C257.147 286.133 257.12 286.773 257.12 287.68V329.2H281.12V334H251.28V284.16ZM358.96 334L353.92 319.44H337.84L332.8 334H327.28L345.68 283.28H346.32L364.72 334H358.96ZM345.92 296.08L339.36 315.12H352.48L345.92 296.08ZM422.64 334V289.12H408.48V284.08H443.04V289.12H428.32V334H422.64ZM490.72 334V284.08H521.28V289.04H496V305.44H516.88V310.56H496V329.04H521.04V334H490.72ZM586 334.88C580.293 334.88 575.893 332.667 572.8 328.24C569.707 323.813 568.16 317.52 568.16 309.36C568.16 301.467 569.707 295.253 572.8 290.72C575.893 286.133 580.293 283.84 586 283.84C591.707 283.84 596.107 286.133 599.2 290.72C602.293 295.253 603.84 301.467 603.84 309.36C603.84 317.52 602.293 323.813 599.2 328.24C596.107 332.667 591.707 334.88 586 334.88ZM586 330C589.787 330 592.747 328.213 594.88 324.64C597.013 321.067 598.08 315.973 598.08 309.36C598.08 303.067 597.013 298.053 594.88 294.32C592.747 290.587 589.787 288.72 586 288.72C582.213 288.72 579.253 290.587 577.12 294.32C574.987 298.053 573.92 303.067 573.92 309.36C573.92 315.973 574.987 321.067 577.12 324.64C579.253 328.213 582.213 330 586 330ZM665.76 334.8C659.307 334.8 654.107 332.693 650.16 328.48L653.04 323.44L653.36 322.72L653.92 323.04C654.027 323.413 654.16 323.84 654.32 324.32C654.48 324.747 654.853 325.28 655.44 325.92C656.827 327.093 658.427 328.027 660.24 328.72C662.107 329.413 664.213 329.76 666.56 329.76C669.547 329.76 672 328.933 673.92 327.28C675.893 325.573 676.88 323.547 676.88 321.2C676.88 319.653 676.56 318.347 675.92 317.28C675.333 316.213 674.213 315.173 672.56 314.16C670.96 313.147 668.587 311.973 665.44 310.64C660.267 308.613 656.693 306.347 654.72 303.84C652.747 301.333 651.76 298.667 651.76 295.84C651.76 292.16 653.12 289.2 655.84 286.96C658.56 284.667 662.267 283.52 666.96 283.52C669.68 283.52 672.24 284.08 674.64 285.2C677.04 286.267 679.093 287.787 680.8 289.76L677.2 294.56L676.72 294.24C676.667 293.813 676.56 293.387 676.4 292.96C676.24 292.533 675.867 292 675.28 291.36C674 290.133 672.64 289.307 671.2 288.88C669.76 288.4 668.053 288.16 666.08 288.16C663.467 288.16 661.387 288.88 659.84 290.32C658.293 291.76 657.52 293.467 657.52 295.44C657.52 296.933 657.84 298.267 658.48 299.44C659.173 300.56 660.4 301.68 662.16 302.8C663.92 303.92 666.48 305.147 669.84 306.48C673.093 307.813 675.627 309.173 677.44 310.56C679.253 311.893 680.533 313.36 681.28 314.96C682.027 316.507 682.4 318.32 682.4 320.4C682.4 322.693 681.813 324.96 680.64 327.2C679.52 329.387 677.733 331.2 675.28 332.64C672.827 334.08 669.653 334.8 665.76 334.8Z" fill="white"/>
</svg>
