<svg width="891" height="616" viewBox="0 0 891 616" fill="none" xmlns="http://www.w3.org/2000/svg">
<rect width="891" height="616" fill="#0D1117"/>
<path d="M333.958 160V145.444H335.243L338.841 152.57L342.509 145.42H343.748V160H342.206V149.019L339.051 154.883H338.421L335.477 149.089V160H333.958ZM358.257 160V158.621H361.131V146.822H358.421V145.444H365.64V146.822H362.766V158.645H365.781V160H358.257ZM380.897 145.444H382.486L388.608 156.238V145.444H390.383V145.607C390.29 145.701 390.228 145.802 390.197 145.911C390.181 146.02 390.173 146.207 390.173 146.472V160H388.888L382.463 148.551V160H380.897V145.444ZM404.986 160V158.621H407.86V146.822H405.15V145.444H412.369V146.822H409.496V158.645H412.51V160H404.986ZM427.416 160V145.444H428.701L432.299 152.57L435.968 145.42H437.206V160H435.664V149.019L432.51 154.883H431.879L428.935 149.089V160H427.416ZM459.449 160L457.977 155.748H453.281L451.809 160H450.197L455.571 145.187H455.758L461.131 160H459.449ZM455.641 148.925L453.725 154.486H457.557L455.641 148.925ZM474.73 145.444H476.645V145.607C476.552 145.701 476.49 145.802 476.459 145.911C476.443 146.02 476.435 146.207 476.435 146.472V158.598H483.445V160H474.73V145.444ZM498.445 160V158.621H501.318V146.822H498.608V145.444H505.828V146.822H502.954V158.645H505.968V160H498.445ZM525.688 160.234C523.803 160.234 522.284 159.618 521.132 158.388L521.973 156.916L522.066 156.706L522.23 156.799C522.261 156.908 522.3 157.033 522.347 157.173C522.393 157.297 522.502 157.453 522.674 157.64C523.079 157.983 523.546 158.255 524.076 158.458C524.621 158.66 525.236 158.762 525.921 158.762C526.794 158.762 527.51 158.52 528.071 158.037C528.647 157.539 528.935 156.947 528.935 156.262C528.935 155.81 528.842 155.428 528.655 155.117C528.484 154.805 528.157 154.502 527.674 154.206C527.206 153.91 526.513 153.567 525.594 153.178C524.083 152.586 523.04 151.924 522.463 151.192C521.887 150.459 521.599 149.681 521.599 148.855C521.599 147.78 521.996 146.916 522.791 146.262C523.585 145.592 524.667 145.257 526.038 145.257C526.833 145.257 527.58 145.42 528.281 145.748C528.982 146.059 529.582 146.503 530.08 147.079L529.029 148.481L528.889 148.388C528.873 148.263 528.842 148.139 528.795 148.014C528.748 147.889 528.639 147.734 528.468 147.547C528.094 147.188 527.697 146.947 527.277 146.822C526.856 146.682 526.358 146.612 525.781 146.612C525.018 146.612 524.41 146.822 523.959 147.243C523.507 147.663 523.281 148.162 523.281 148.738C523.281 149.174 523.375 149.564 523.562 149.906C523.764 150.234 524.122 150.561 524.636 150.888C525.15 151.215 525.898 151.573 526.879 151.963C527.829 152.352 528.569 152.749 529.099 153.154C529.629 153.544 530.002 153.972 530.22 154.439C530.439 154.891 530.548 155.421 530.548 156.028C530.548 156.698 530.376 157.36 530.034 158.014C529.706 158.653 529.185 159.182 528.468 159.603C527.752 160.023 526.825 160.234 525.688 160.234ZM544.239 160V145.444H545.524L549.122 152.57L552.791 145.42H554.029V160H552.487V149.019L549.333 154.883H548.702L545.758 149.089V160H544.239Z" fill="white"/>
<path d="M583.641 183.366L446 422.08L308.359 183.366L583.641 183.366Z" stroke="url(#paint0_linear)" stroke-width="18.9017"/>
<defs>
<linearGradient id="paint0_linear" x1="445.814" y1="459.079" x2="445.814" y2="144.681" gradientUnits="userSpaceOnUse">
<stop stop-color="#15EDD3"/>
<stop offset="1" stop-color="#EC0488"/>
</linearGradient>
</defs>
</svg>
