<svg width="891" height="616" viewBox="0 0 891 616" fill="none" xmlns="http://www.w3.org/2000/svg">
<rect x="0.5" y="0.5" width="890" height="615" stroke="black" stroke-opacity="0.01"/>
<rect x="395.011" y="209.491" width="86.9344" height="11.0667" rx="5.53333" transform="rotate(-45 395.011 209.491)" fill="url(#paint0_linear)" stroke="url(#paint1_linear)" stroke-width="0.539965"/>
<rect x="419.829" y="216.294" width="61.7395" height="11.0667" rx="5.53333" transform="rotate(-45 419.829 216.294)" fill="url(#paint2_linear)" stroke="url(#paint3_linear)" stroke-width="0.539965"/>
<rect x="426.642" y="241.116" width="86.9344" height="11.0667" rx="5.53333" transform="rotate(-45 426.642 241.116)" fill="url(#paint4_linear)" stroke="url(#paint5_linear)" stroke-width="0.539965"/>
<circle cx="445.393" cy="198.393" r="107.993" stroke="url(#paint6_linear)" stroke-width="10.7993"/>
<path d="M146 404.754V484.466C149.198 548.203 243.833 545.699 247.735 484.466V404.754H237.035V484.466C237.035 506.062 217.042 521.046 197.112 520.846C177.125 520.646 160.531 509.333 157.401 484.466V404.754H146.351H146Z" fill="url(#paint7_linear)"/>
<path d="M286.346 405.425V530.663H296.515V422.989L381.168 530.663H389.088V405.425H378.743V513.427L296.515 405.425H286.346Z" fill="url(#paint8_linear)"/>
<path d="M407.221 530.663L464.877 405.425H475.02L532.794 530.663H521.204L470.093 417.985L418.955 530.663H407.221Z" fill="url(#paint9_linear)"/>
<path d="M524.736 404.418L581.24 531.335L590.137 531.172L645.945 404.418H636.081L585.605 517.958L536.007 404.418L524.736 404.418Z" fill="url(#paint10_linear)"/>
<path fill-rule="evenodd" clip-rule="evenodd" d="M663.738 405.425V415.162H745.999V405.425H663.738ZM663.738 463.176V472.913H745.999V463.176H663.738ZM663.738 530.663V521.262H745.999V530.663H663.738Z" fill="url(#paint11_linear)"/>
<defs>
<linearGradient id="paint0_linear" x1="374.666" y1="216.978" x2="496.847" y2="215.832" gradientUnits="userSpaceOnUse">
<stop stop-color="#23D18C"/>
<stop offset="1" stop-color="#EC0488"/>
</linearGradient>
<linearGradient id="paint1_linear" x1="389.214" y1="223.005" x2="392.715" y2="195.75" gradientUnits="userSpaceOnUse">
<stop stop-color="#23D18C"/>
<stop offset="1" stop-color="#FF0995"/>
</linearGradient>
<linearGradient id="paint2_linear" x1="407.492" y1="221.401" x2="497.09" y2="221.271" gradientUnits="userSpaceOnUse">
<stop stop-color="#23D18C"/>
<stop offset="1" stop-color="#EC0488"/>
</linearGradient>
<linearGradient id="paint3_linear" x1="415.592" y1="229.808" x2="420.433" y2="202.977" gradientUnits="userSpaceOnUse">
<stop stop-color="#23D18C"/>
<stop offset="1" stop-color="#FF0995"/>
</linearGradient>
<linearGradient id="paint4_linear" x1="396.179" y1="263.628" x2="556.732" y2="264.583" gradientUnits="userSpaceOnUse">
<stop stop-color="#23D18C"/>
<stop offset="1" stop-color="#EC0488"/>
</linearGradient>
<linearGradient id="paint5_linear" x1="420.845" y1="254.63" x2="424.346" y2="227.375" gradientUnits="userSpaceOnUse">
<stop stop-color="#23D18C"/>
<stop offset="1" stop-color="#FF0995"/>
</linearGradient>
<linearGradient id="paint6_linear" x1="317.961" y1="349.043" x2="588.484" y2="69.611" gradientUnits="userSpaceOnUse">
<stop stop-color="#23D18C"/>
<stop offset="1" stop-color="#FF0995"/>
</linearGradient>
<linearGradient id="paint7_linear" x1="196.867" y1="404.754" x2="196.867" y2="531.335" gradientUnits="userSpaceOnUse">
<stop stop-color="#F71E78"/>
<stop offset="0.989583" stop-color="#60716A" stop-opacity="0.2"/>
</linearGradient>
<linearGradient id="paint8_linear" x1="337.717" y1="405.425" x2="337.717" y2="530.663" gradientUnits="userSpaceOnUse">
<stop stop-color="#F71E78"/>
<stop offset="0.989583" stop-color="#60716A" stop-opacity="0.2"/>
</linearGradient>
<linearGradient id="paint9_linear" x1="470.007" y1="405.425" x2="470.007" y2="530.663" gradientUnits="userSpaceOnUse">
<stop stop-color="#F71E78"/>
<stop offset="0.989583" stop-color="#60716A" stop-opacity="0.2"/>
</linearGradient>
<linearGradient id="paint10_linear" x1="585.341" y1="404.418" x2="585.341" y2="531.335" gradientUnits="userSpaceOnUse">
<stop stop-color="#F71E78"/>
<stop offset="0.989583" stop-color="#60716A" stop-opacity="0.2"/>
</linearGradient>
<linearGradient id="paint11_linear" x1="704.869" y1="405.425" x2="704.869" y2="530.663" gradientUnits="userSpaceOnUse">
<stop stop-color="#F71E78"/>
<stop offset="0.989583" stop-color="#60716A" stop-opacity="0.2"/>
</linearGradient>
</defs>
</svg>
